# xmcd
#
# Track frame offsets:
#	150
#	14267
#	35978
#	50270
#	62563
#	81259
#	96867
#	108892
#	123162
#	150582
#	163883
#	184173
#
# Disc length: 2686 seconds
#
# Revision: 1
# Processed by: cddbd v1.4PL0 Copyright (c) Steve Scherf et al.
# Submitted via: audiograbber 1.81.03
#
DISCID=960a7c0c
DTITLE=Cam Clarke - Inside Out
DYEAR=1999
DGENRE=Pop
TTITLE0=Something In The Way He Moves
TTITLE1=Language Of The Heart
TTITLE2=Can't Get Used To Losing You
TTITLE3=Son Of A Preacher Man
TTITLE4=Jesse
TTITLE5=Someone Else's Star
TTITLE6=If You Gotta Make A Fool Of Somebody
TTITLE7=Rainy Night House
TTITLE8=I Will Survive
TTITLE9=His Friends Are More Than Fond Of Robin
TTITLE10=Palamino Road
TTITLE11=The Water Is Wide
EXTD=Openly-gay son of one of the King Sisters.
EXTT0=
EXTT1=
EXTT2=
EXTT3=
EXTT4=
EXTT5=
EXTT6=
EXTT7=
EXTT8=
EXTT9=
EXTT10=
EXTT11=
PLAYORDER=
